<?xml version="1.0" encoding="UTF-8"?>
<svg id="Ebene_1" xmlns="http://www.w3.org/2000/svg" version="1.1" viewBox="0 0 453.54 301.24">
  <!-- Generator: Adobe Illustrator 29.6.1, SVG Export Plug-In . SVG Version: 2.1.1 Build 9)  -->
  <defs>
    <style>
      .st0 {
        fill: #7fc9e1;
      }

      .st1 {
        fill: #d5e4d4;
      }

      .st2 {
        fill: #fcdbc6;
      }

      .st3 {
        fill: #9fd4dc;
      }

      .st4 {
        fill: #f7b4b2;
      }

      .st5 {
        fill: #75bee5;
      }

      .st6 {
        fill: none;
        stroke: #000;
        stroke-miterlimit: 10;
        stroke-width: .4px;
      }

      .st7 {
        fill: #f597a3;
      }

      .st8 {
        fill: #b3dad9;
      }

      .st9 {
        fill: #f9bfb8;
      }

      .st10 {
        fill: #f6a3a9;
      }
    </style>
  </defs>
  <path class="st7" d="M453.09,187.15c.7,28.74.38,57.66.38,86.46-.75.6-1.05.16-1.17-.69l.24-15.23c-.13-3.89-1.93-7.34-5.41-10.38-14.25-20.62-28.76-40.82-43.55-60.6-1.67-1.81-2.54-3.69-2.59-5.65,15.66-.53,31.54-.52,47.1-.4,2.09.01,6.07,4.07,5,6.47h0Z"/>
  <path class="st4" d="M380.85,181.08l.76.4c23.07,31.94,46.34,64.49,69.82,97.65l1.88,3.71c.1,3.77.04,7.52-.19,11.25,0,.25,0,.51,0,.76-1.71,5.76-5.06,5.92-10.27,6.06h-.38l-1.08-1.6c-1.29-6.12-3.45-12.02-6.07-17.7l-.07-1.94c-1.83-1.92-3.35-4.18-4.55-6.8-1.78-2.3-3.05-4.71-3.82-7.24l-.88.06c-2.54-4.09-5.56-7.75-9.06-10.96l.06-.85c-2.03-1.61-3.99-3.34-5.86-5.2l.16-.87-3.72-3.85c-15.01-20.74-29.97-41.43-44.91-62.06l.34-.82c5.95-.76,11.92-.76,17.87,0h-.02Z"/>
  <path class="st10" d="M401,181.08c2.57,5.05,6.51,9.33,9.83,13.9,12.39,17.09,24.61,34.35,36.78,51.67,1.46,2.07,4.45,4.73,5.28,7.25.9,2.73.16,13.88.2,17.62,0,.64-.25,1.68.39,2.08,0,6.12.07,12.27,0,18.4,0,.64.24,1.69-.39,2.08-.1-3.72.09-7.45-.01-11.17-21.46-31.64-44.55-62.29-66.84-93.36-1.51-2.11-3.36-4.52-4.72-6.67-.37-.58-.77-1.02-.67-1.79,6.69-.8,13.46-.82,20.15,0h0Z"/>
  <path class="st3" d="M416.97,253.9c2.96,1.65,7.83,8.8,9.89,11.76l-1.05.87c-27.68,11.47-57.16,23.54-84.5,34.39-10.09-.02-21.69.73-31.56,0-2.65-.19-3.11-.57-4.94-2.27-.21-.28-.46-.6-.38-.89.15-.55,3.01-1.74,3.75-2.05,34.74-14.36,71.7-29.02,107.28-43.14.1-.04,1.41.97,1.51,1.33h0Z"/>
  <path class="st0" d="M435.22,279.68c-.37.54-.99.76-1.88.64-5.74,1.97-11.67,4.28-17.79,6.92-11.48,4.9-22.67,9.46-33.57,13.68-13.56.01-27.13.03-40.69,0,.25-.61.7-.91,1.26-1.21,4.51-2.39,10.64-4.2,15.47-6.18,13.02-5.35,26.14-10.62,39.17-15.93,9.86-4.02,19.54-8.68,29.67-11.94,3.14,4.51,5.99,9.07,8.37,14.03h0Z"/>
  <path class="st5" d="M435.22,279.68c3.21,6.7,5.92,13.9,7.22,21.24-19.97.55-40.43-.02-60.46,0-.19-.94.44-.8,1.03-1.04,15.4-6.15,30.64-12.97,46.13-18.86,1.96-.75,3.98-1.98,6.07-1.34h0Z"/>
  <path class="st8" d="M402.52,241.38l1.47.1c2.78,1.71,5.17,3.88,7.28,6.35,1.3,1.13,3.55,3.28,4.76,4.54.45.46.93.8.94,1.53-.55-.31-1.2-.49-1.8-.69-34.06,13.8-68.31,27.54-102.38,41.46-2.06.85-4.77,1.84-6.67,2.83-.58.3-1.08.44-1.32,1.15-1.87-1.74-2.42-2.65-2.66-5.31-.53-5.09-.31-10.44,0-15.55,1.03.01,1.4.87,1.11,2.57,21.25-7.92,42.38-16.56,63.4-25.93,10.83-4.64,21.84-8.91,32.83-13.05,1.11-.42,1.91-.49,3.04,0h-.01Z"/>
  <path class="st1" d="M302.51,188.29l.76.26v41.97c14.4-5.43,28.8-8.72,44.45-8.32,4.75.12,17.04.76,20.63,2.85.38.22.73.49,1.08.77.37-.11.74-.2,1.11-.24,3.02-.31,12.28,3.83,15.55,5.35,3.51,1.62,14.05,6.84,15.86,9.44.22.31.38.65.54.99-1.05.27-2.13.47-3.15.85-31.74,11.65-62.94,26.76-94.64,38.71-3.75.96-1.37-.7-2.59-3.16-.2-29.7.15-59.41,0-89.12l.38-.38h.01Z"/>
  <path class="st2" d="M337.49,181.08l1.19.42c10.39,14.49,20.77,28.99,31.1,43.52l-.35.82c-17.02-4.12-35.01-3.84-51.88.79-5.15,1.41-10.03,3.51-15.05,5.28v-43.6c-.1-3.54,2.6-6,5.7-7.2,9.75-.02,19.53.03,29.28,0h0Z"/>
  <path class="st9" d="M362.97,181.08l48.29,66.74c-2.59-2.26-5.87-4.43-8.75-6.45-9.91-6.98-21.2-12.67-33.08-15.55l-31.94-44.75c8.49-.02,16.99,0,25.48,0h0Z"/>
  <path d="M453.41,301.02H0V0h452.85s.56.52.56.56v300.46ZM7.56.74C3.47,1.05.77,4.46.44,8.38v164.39c.29,3.41,3.06,6.95,6.6,7.27,146.47.2,292.9-.53,439.34,0,4.43-.73,6.33-4.43,6.6-8.61V8.82c-.36-4.57-3.4-8.14-8.17-8.17h-135.12c-2.34.28-4.53,1.35-5.79,3.38-.52.83-.99,3.13-2.26,2-.2-.19-.84-1.62-1.23-2.12-1.27-1.63-3.35-3.11-5.47-3.25L7.56.74ZM149.35,297.59c.71-.87,1.33-2.93,1.42-4.06-.21-35.75.38-71.58-.3-107.29-1-3.15-3.7-5.07-6.97-5.33-45.86,0-91.77.08-137.59.44-3.16,1.17-5.21,3.9-5.47,7.27v104.23c.32,4.09,3.36,7.36,7.49,7.72h135.35c1.98-.17,4.82-1.44,6.07-2.98h0ZM222.74,180.99c-21.69.06-43.44.28-65.16.16-3.1.58-5.6,3.19-5.94,6.36v106.47c.52,3.69,3.86,6.34,7.49,6.6h135.12c3.75-.25,7-3.05,7.49-6.82v-106.02c-.46-3.63-3.59-6.64-7.27-6.82-23.92,0-47.83,0-71.74.07h0ZM373.06,180.99c-21.47.06-43,.28-64.49.16-4.71.91-6.13,5.21-6.39,9.5v101.55c.34,4.45,2.91,7.89,7.49,8.38h135.12c5.21-.37,7.74-3.57,8.17-8.61v-102.44c-.33-3.67-1.99-7.29-5.83-8.27-24.62-.63-49.41-.34-74.09-.27h0Z"/>
  <line class="st6" x1="302" y1="4.05" x2="302" y2="182.03"/>
</svg>