<?xml version="1.0" encoding="UTF-8"?>
<svg id="Ebene_1" xmlns="http://www.w3.org/2000/svg" version="1.1" viewBox="0 0 606.5 402.82">
  <!-- Generator: Adobe Illustrator 29.6.1, SVG Export Plug-In . SVG Version: 2.1.1 Build 9)  -->
  <defs>
    <style>
      .st0 {
        fill: #7fc9e1;
      }

      .st1 {
        fill: #d5e4d4;
      }

      .st2 {
        fill: #fcdbc6;
      }

      .st3 {
        fill: #9fd4dc;
      }

      .st4 {
        fill: #f7b4b2;
      }

      .st5 {
        fill: #75bee5;
      }

      .st6 {
        fill: none;
        stroke: #000;
        stroke-miterlimit: 10;
        stroke-width: .4px;
      }

      .st7 {
        fill: #f597a3;
      }

      .st8 {
        fill: #b3dad9;
      }

      .st9 {
        fill: #f9bfb8;
      }

      .st10 {
        fill: #f6a3a9;
      }
    </style>
  </defs>
  <path class="st7" d="M605.89,250.27c.93,38.43.51,77.11.51,115.62-1,.8-1.41.22-1.56-.92l.32-20.36c-.18-5.2-2.58-9.82-7.23-13.88-19.05-27.57-38.46-54.58-58.23-81.03-2.23-2.42-3.39-4.93-3.47-7.55,20.94-.71,42.18-.69,62.98-.54,2.79.02,8.12,5.44,6.68,8.65Z"/>
  <path class="st4" d="M509.28,242.15l1.01.53c30.85,42.71,61.97,86.24,93.36,130.58l2.51,4.96c.14,5.04.05,10.06-.26,15.05,0,.34-.01.68,0,1.01-2.29,7.7-6.77,7.91-13.73,8.11-.17,0-.34,0-.51,0l-1.45-2.14c-1.73-8.19-4.62-16.08-8.12-23.67l-.09-2.59c-2.45-2.57-4.48-5.59-6.08-9.09-2.38-3.07-4.08-6.3-5.11-9.68l-1.18.08c-3.4-5.47-7.44-10.36-12.11-14.66l.08-1.14c-2.71-2.15-5.33-4.46-7.84-6.95l.22-1.16-4.98-5.15c-20.07-27.73-40.08-55.4-60.05-82.99l.46-1.1c7.96-1.01,15.94-1.01,23.9,0Z"/>
  <path class="st10" d="M536.23,242.15c3.44,6.75,8.7,12.48,13.14,18.59,16.57,22.86,32.91,45.94,49.19,69.1,1.95,2.77,5.95,6.32,7.06,9.69,1.21,3.65.22,18.56.27,23.56,0,.86-.33,2.25.52,2.78,0,8.19.1,16.41,0,24.6,0,.86.32,2.26-.52,2.78-.14-4.97.12-9.96-.02-14.94-28.7-42.31-59.58-83.29-89.38-124.85-2.02-2.82-4.49-6.05-6.31-8.92-.5-.78-1.03-1.37-.89-2.4,8.95-1.07,18-1.09,26.95,0Z"/>
  <path class="st3" d="M557.59,339.52c3.96,2.2,10.47,11.77,13.22,15.72l-1.4,1.17c-37.02,15.34-76.44,31.48-113,45.99-13.49-.03-29,.97-42.2,0-3.54-.26-4.16-.76-6.61-3.04-.28-.37-.61-.8-.51-1.19.2-.74,4.02-2.33,5.02-2.74,46.45-19.2,95.88-38.81,143.46-57.69.13-.05,1.89,1.3,2.02,1.78Z"/>
  <path class="st0" d="M581.99,374c-.49.72-1.32,1.01-2.51.85-7.68,2.64-15.61,5.72-23.79,9.25-15.35,6.55-30.31,12.65-44.89,18.3-18.13.02-36.28.04-54.41,0,.34-.81.93-1.22,1.68-1.62,6.03-3.2,14.23-5.62,20.69-8.27,17.41-7.15,34.96-14.2,52.38-21.3,13.18-5.37,26.13-11.61,39.67-15.97,4.2,6.03,8.01,12.13,11.19,18.76Z"/>
  <path class="st5" d="M581.99,374c4.29,8.96,7.91,18.59,9.66,28.4-26.7.74-54.07-.03-80.85,0-.26-1.26.59-1.07,1.38-1.39,20.6-8.23,40.97-17.34,61.69-25.22,2.62-1,5.32-2.65,8.12-1.79Z"/>
  <path class="st8" d="M538.26,322.78l1.96.13c3.72,2.28,6.91,5.19,9.74,8.49,1.74,1.51,4.75,4.39,6.37,6.07.6.62,1.25,1.07,1.26,2.04-.74-.41-1.61-.65-2.41-.92-45.55,18.46-91.34,36.83-136.9,55.44-2.76,1.13-6.38,2.46-8.92,3.78-.78.4-1.44.59-1.76,1.54-2.5-2.33-3.23-3.54-3.56-7.1-.71-6.8-.41-13.96,0-20.79,1.38.02,1.87,1.16,1.49,3.44,28.41-10.59,56.67-22.15,84.78-34.67,14.48-6.21,29.2-11.92,43.9-17.45,1.49-.56,2.56-.65,4.07,0Z"/>
  <path class="st1" d="M404.53,251.79l1.02.35v56.13c19.25-7.26,38.51-11.66,59.44-11.13,6.35.16,22.78,1.02,27.59,3.81.51.3.98.66,1.44,1.03.49-.15.99-.27,1.49-.32,4.04-.42,16.42,5.12,20.8,7.16,4.69,2.17,18.79,9.14,21.21,12.63.29.41.51.87.72,1.33-1.4.36-2.85.63-4.21,1.13-42.45,15.58-84.16,35.79-126.56,51.77-5.01,1.29-1.83-.94-3.47-4.22-.27-39.71.2-79.45,0-119.17l.51-.51Z"/>
  <path class="st2" d="M451.31,242.15l1.59.56c13.9,19.38,27.77,38.77,41.59,58.19l-.47,1.09c-22.76-5.51-46.82-5.13-69.37,1.05-6.89,1.89-13.41,4.69-20.12,7.06v-58.31c-.13-4.74,3.48-8.03,7.62-9.63,13.04-.03,26.11.04,39.15,0Z"/>
  <path class="st9" d="M485.38,242.15l64.58,89.25c-3.47-3.02-7.85-5.92-11.7-8.62-13.25-9.33-28.35-16.94-44.24-20.79l-42.71-59.84c11.35-.03,22.72.01,34.07,0Z"/>
  <path d="M606.32,402.53H0V0h605.57c.05,0,.75.69.75.75v401.78ZM10.11.99C4.64,1.4,1.03,5.96.59,11.2v219.83c.39,4.56,4.09,9.29,8.82,9.72,195.86.27,391.68-.71,587.5,0,5.93-.98,8.46-5.92,8.83-11.51V11.8c-.48-6.11-4.55-10.89-10.92-10.92h-180.69c-3.13.37-6.06,1.8-7.74,4.52-.69,1.11-1.32,4.19-3.02,2.67-.27-.25-1.12-2.16-1.65-2.84-1.7-2.18-4.48-4.16-7.31-4.35L10.11.99ZM199.72,397.95c.95-1.17,1.78-3.92,1.9-5.43-.28-47.81.51-95.72-.4-143.47-1.34-4.21-4.95-6.78-9.32-7.13-61.32,0-122.72.11-183.99.59-4.23,1.57-6.97,5.22-7.32,9.72v139.38c.43,5.47,4.49,9.84,10.02,10.32h180.99c2.65-.23,6.44-1.92,8.12-3.99ZM297.86,242.02c-29.01.08-58.09.38-87.13.21-4.14.78-7.49,4.27-7.94,8.51v142.37c.69,4.93,5.16,8.48,10.02,8.82h180.69c5.01-.34,9.36-4.08,10.02-9.12v-141.78c-.62-4.86-4.8-8.88-9.72-9.12-31.98,0-63.96,0-95.94.1ZM498.87,242.02c-28.71.08-57.5.38-86.24.21-6.3,1.22-8.2,6.97-8.54,12.7v135.8c.45,5.95,3.89,10.55,10.02,11.21h180.69c6.97-.49,10.35-4.78,10.92-11.51v-136.99c-.44-4.91-2.66-9.75-7.79-11.06-32.92-.84-66.07-.45-99.07-.36Z"/>
  <line class="st6" x1="403.84" y1="5.42" x2="403.84" y2="243.42"/>
</svg>